# xmcd
#
# Track frame offsets:
# 150
# 19472
# 37019
# 57104
# 73220
# 91739
# 111959
# 130261
# 147025
# 165029
# 185165
# 199526
# 214508
# 230057
# 249494
# 266933
# 280889
# 295574
# 311932
# 331045
#
# Disc length: 4636 seconds
#
#
# Revision: 2
# Processed by: cddbd v1.5.2PL0 Copyright (c) Steve Scherf et al.
# Submitted via: FreeRIP 2.951 
#
DISCID=2c121a14
DTITLE=Zezé di Camargo E Luciano - Zezé Di Camargo E Luciano - As 20 Mais
DYEAR=2000
DGENRE=MPB
TTITLE0=Faixa 01 - Menina Veneno
TTITLE1=Faixa 02 - Você Vai Ver
TTITLE2=Faixa 03 - Deve Ser Amor
TTITLE3=Faixa 04 - Salva Meu coração
TTITLE4=Faixa 05 - Faz Mais Uma Vez Comigo
TTITLE5=Faixa 06 - Preciso De Um Tempo
TTITLE6=Faixa 07 - Vem Ficar Comigo
TTITLE7=Faixa 08 - A Ferro E Fogo
TTITLE8=Faixa 09 - Pão De Mel
TTITLE9=Faixa 10 - Tanto Pra Te Dizer
TTITLE10=Faixa 11 - Não Dá Pra Esperar
TTITLE11=Faixa 12 - Como Um Anjo
TTITLE12=Faixa 13 - Liberdade Liberdade
TTITLE13=Faixa 14 - O Amor Deixou A Gente
TTITLE14=Faixa 15 - O Que É Que Eu Faço
TTITLE15=Faixa 16 - Doce Paixão
TTITLE16=Faixa 17 - Eu Nasci Pra Amar Você
TTITLE17=Faixa 18 - Ainda Sou O Mesmo Homem
TTITLE18=Faixa 19 - Foi A Primeira Vez
TTITLE19=Faixa 20 - Mexe Que É Bom
EXTD=pedro.rp@oi.com.br\nEm: 23/10/2006
EXTT0=
EXTT1=
EXTT2=
EXTT3=
EXTT4=
EXTT5=
EXTT6=
EXTT7=
EXTT8=
EXTT9=
EXTT10=
EXTT11=
EXTT12=
EXTT13=
EXTT14=
EXTT15=
EXTT16=
EXTT17=
EXTT18=
EXTT19=
PLAYORDER=
